Jump_normalized_pl04_filtered_grf
version=1
nRows=17
nColumns=37
inDegrees=yes
endheader
time		1_ground_force_vx		1_ground_force_vy		1_ground_force_vz		1_ground_force_px		1_ground_force_py		1_ground_force_pz		1_ground_torque_x		1_ground_torque_y		1_ground_torque_z		2_ground_force_vx		2_ground_force_vy		2_ground_force_vz		2_ground_force_px		2_ground_force_py		2_ground_force_pz		2_ground_torque_x		2_ground_torque_y		2_ground_torque_z		3_ground_force_vx		3_ground_force_vy		3_ground_force_vz		3_ground_force_px		3_ground_force_py		3_ground_force_pz		3_ground_torque_x		3_ground_torque_y		3_ground_torque_z		4_ground_force_vx		4_ground_force_vy		4_ground_force_vz		4_ground_force_px		4_ground_force_py		4_ground_force_pz		4_ground_torque_x		4_ground_torque_y		4_ground_torque_z		
0.004500		-0.000000		0.000000		0.000000		0.132236		0.000000		0.267992		0.000000		0.000000		-0.000000		0.000000		0.000000		0.000000		-0.141844		0.000000		0.275422		0.000000		-0.000000		0.000000		-10.084270		319.978520		252.658685		0.374684		1.309570		1.914784		-2.083112		21.225848		-52.320538		-8.476945		457.526928		295.280175		-0.266505		1.308926		1.925862		-0.322831		17.424177		11.245270		
0.006672		-0.000000		0.000000		0.000000		0.132236		0.000000		0.267992		0.000000		0.000000		-0.000000		0.000000		0.000000		0.000000		-0.141844		0.000000		0.275422		0.000000		-0.000000		0.000000		-10.483006		318.980395		253.695750		0.374655		1.309548		1.914889		-1.910736		21.396584		-52.334528		-8.627590		459.410512		299.098330		-0.266481		1.308909		1.925869		-0.329071		17.522730		11.408141		
0.008843		-0.000000		0.000000		0.000000		0.132236		0.000000		0.267992		0.000000		0.000000		-0.000000		0.000000		0.000000		0.000000		-0.141844		0.000000		0.275422		0.000000		-0.000000		0.000000		-10.936365		318.009216		254.759955		0.374620		1.309516		1.914985		-1.729718		21.583088		-52.364028		-8.688128		461.310408		302.978364		-0.266463		1.308895		1.925878		-0.331614		17.607584		11.564268		
0.011015		-0.000000		0.000000		0.000000		0.132236		0.000000		0.267992		0.000000		0.000000		-0.000000		-0.000000		0.000000		0.000000		-0.141844		0.000000		0.275422		0.000000		-0.000000		0.000000		-11.381021		317.120179		255.897217		0.374578		1.309469		1.915065		-1.552367		21.787992		-52.416594		-8.656242		463.155336		306.832231		-0.266453		1.308884		1.925892		-0.330361		17.676065		11.710081		
0.013187		-0.000000		0.000000		0.000000		0.132236		0.000000		0.267992		0.000000		0.000000		-0.000000		-0.000000		0.000000		0.000000		-0.141844		0.000000		0.275422		0.000000		-0.000000		0.000000		-11.785478		316.367211		257.166255		0.374526		1.309404		1.915126		-1.383853		22.015062		-52.500163		-8.540306		464.879709		310.592168		-0.266451		1.308877		1.925911		-0.325667		17.727230		11.843791		
0.015359		-0.000000		0.000000		0.000000		0.132236		0.000000		0.267992		0.000000		0.000000		-0.000000		-0.000000		0.000000		0.000000		-0.141844		0.000000		0.275422		0.000000		-0.000000		0.000000		-12.140165		315.788944		258.620726		0.374464		1.309322		1.915165		-1.225001		22.267270		-52.619892		-8.362421		466.432382		314.217650		-0.266457		1.308875		1.925935		-0.318448		17.762134		11.965668		
0.017530		0.000000		-0.000000		-0.000000		0.132236		0.000000		0.267992		-0.000000		-0.000000		0.000000		-0.000000		-0.000000		0.000000		-0.141844		0.000000		0.275422		-0.000000		0.000000		-0.000000		-12.449710		315.410019		260.302907		0.374392		1.309222		1.915181		-1.074425		22.546784		-52.778527		-8.149375		467.772012		317.685740		-0.266468		1.308877		1.925965		-0.309799		17.782389		12.076847		
0.019702		0.000000		-0.000000		-0.000000		0.132236		0.000000		0.267992		-0.000000		-0.000000		0.000000		-0.000000		-0.000000		-0.000000		-0.141844		0.000000		0.275422		-0.000000		0.000000		-0.000000		-12.714493		315.234813		262.236409		0.374310		1.309111		1.915169		-0.932387		22.854293		-52.975262		-7.933500		468.863544		320.989308		-0.266484		1.308884		1.926001		-0.301018		17.789920		12.179179		
0.021874		0.000000		-0.000000		-0.000000		0.132236		0.000000		0.267992		-0.000000		-0.000000		0.000000		-0.000000		-0.000000		-0.000000		-0.141844		0.000000		0.275422		-0.000000		0.000000		-0.000000		-12.938810		315.245386		264.403151		0.374224		1.308997		1.915138		-0.798805		23.186372		-53.205033		-7.739579		469.690972		324.132562		-0.266499		1.308893		1.926042		-0.293099		17.787263		12.274944		
0.024045		0.000000		-0.000000		-0.000000		0.132236		0.000000		0.267992		-0.000000		-0.000000		0.000000		-0.000000		-0.000000		-0.000000		-0.141844		0.000000		0.275422		-0.000000		0.000000		-0.000000		-13.111818		315.404681		266.767811		0.374138		1.308887		1.915094		-0.676552		23.538838		-53.460161		-7.590115		470.238317		327.129132		-0.266514		1.308903		1.926086		-0.286933		17.776613		12.366597		
0.026217		0.000000		-0.000000		-0.000000		0.132236		0.000000		0.267992		-0.000000		-0.000000		0.000000		-0.000000		-0.000000		-0.000000		-0.141844		0.000000		0.275422		-0.000000		0.000000		-0.000000		-13.215646		315.656362		269.280154		0.374058		1.308789		1.915044		-0.569272		23.907135		-53.730618		-7.500265		470.495670		329.998630		-0.266527		1.308914		1.926134		-0.283117		17.760093		12.456662		
0.028389		0.000000		-0.000000		-0.000000		0.132236		0.000000		0.267992		-0.000000		-0.000000		0.000000		0.000000		-0.000000		-0.000000		-0.141844		0.000000		0.275422		-0.000000		0.000000		-0.000000		-13.228698		315.930581		271.883799		0.373988		1.308707		1.914994		-0.480354		24.287218		-54.005237		-7.473814		470.468365		332.765374		-0.266536		1.308922		1.926183		-0.281811		17.739720		12.547420		
0.030561		0.000000		-0.000000		-0.000000		0.132236		0.000000		0.267992		-0.000000		-0.000000		0.000000		0.000000		-0.000000		-0.000000		-0.141844		0.000000		0.275422		-0.000000		0.000000		-0.000000		-13.131141		316.153019		274.533707		0.373933		1.308645		1.914953		-0.411821		24.677348		-54.273393		-7.505775		470.166078		335.450235		-0.266541		1.308927		1.926232		-0.282835		17.716994		12.640575		
0.032732		-0.000000		-0.000000		0.000000		0.132236		0.000000		0.267992		0.000000		0.000000		0.000000		0.000000		-0.000000		-0.000000		-0.141844		0.000000		0.275422		-0.000000		0.000000		-0.000000		-12.908000		316.249119		277.200458		0.373896		1.308601		1.914923		-0.363776		25.078215		-54.525604		-7.583140		469.609680		338.071391		-0.266543		1.308930		1.926283		-0.285699		17.692833		12.737048		
0.034904		-0.000000		0.000000		0.000000		0.132236		0.000000		0.267992		0.000000		0.000000		-0.000000		0.000000		0.000000		-0.000000		-0.141844		0.000000		0.275422		0.000000		-0.000000		0.000000		-12.546188		316.157271		279.870641		0.373879		1.308573		1.914909		-0.335387		25.491951		-54.754983		-7.687479		468.833989		340.643921		-0.266540		1.308927		1.926333		-0.289694		17.667499		12.836796		
0.037076		-0.000000		0.000000		0.000000		0.132236		0.000000		0.267992		0.000000		0.000000		-0.000000		0.000000		0.000000		0.000000		-0.141844		0.000000		0.275422		0.000000		-0.000000		0.000000		-12.049105		315.821362		282.549175		0.373881		1.308553		1.914912		-0.322146		25.922740		-54.956225		-7.799915		467.875060		343.180618		-0.266534		1.308922		1.926384		-0.294085		17.640605		12.939168		
0.039247		-0.000000		0.000000		0.000000		0.132236		0.000000		0.267992		0.000000		0.000000		-0.000000		0.000000		0.000000		0.000000		-0.141844		0.000000		0.275422		0.000000		-0.000000		0.000000		-11.448913		315.193838		285.254455		0.373895		1.308537		1.914928		0.071501		6.903430		-33.624356		-7.904318		466.770272		345.697535		-0.266525		1.308915		1.926435		-0.298231		17.611333		13.043237		
